<svg id="svg2" xmlns="http://www.w3.org/2000/svg" viewBox="0 0 675.68 158.71"><defs><style>.cls-1,.cls-4{fill:#e11f2c;}.cls-1,.cls-3{fill-rule:evenodd;}.cls-2,.cls-3{fill:#fff;}</style></defs><title>Dmer-Logo</title><g id="g10"><g id="g12"><path id="path14" class="cls-1" d="M329.92,36.84h20.76v21.9h21.89V79.49H350.68v21.9H329.92V79.49H308V58.74h21.89V36.84"/><path id="path16" class="cls-2" d="M242.66,87.45c13,0,21.32-5.33,21.32-17.56v-.24c0-12.24-8.36-17.57-21.32-17.57h-4.73V87.45ZM209.59,27.37h32.46c33.68,0,50.52,16.6,50.52,41.67v.24c0,25.08-17.21,42.89-51.49,42.89H209.59V27.37"/><path id="path18" class="cls-2" d="M389.09,27.37h29.56l18.17,29.8L455,27.37h29.56v84.8H456.32v-42l-19.5,30.17h-.49l-19.5-30.17v42H389.09V27.37"/><path id="path20" class="cls-2" d="M503.31,27.37h72.32V50.63H531.17v8.6H572.6V79.7H531.17v9.21h45.06v23.26H503.31V27.37"/><path id="path22" class="cls-2" d="M633.52,67.71c6.78,0,10.9-3,10.9-8.24v-.24c0-5.45-4.24-8.12-10.78-8.12H621.28v16.6ZM592.94,27.37h41.43c15,0,24.59,3.75,30.53,9.69,5.08,5.09,7.75,11.39,7.75,20.11v.24c0,12.36-6.42,21-16.72,25.93l19.75,28.83H643.33l-16-24.23h-6.06v24.23H592.94V27.37"/><path id="path24" class="cls-2" d="M213.05,141.85a3.28,3.28,0,0,0,3.47-3.43v0a3.31,3.31,0,0,0-3.47-3.47h-2v6.94Zm-4.5-9.23h4.5c3.62,0,6.12,2.49,6.12,5.73v0a5.76,5.76,0,0,1-6.12,5.76h-4.5V132.62"/><path id="path26" class="cls-2" d="M225,132.62h2.53v11.52H225V132.62"/><path id="path28" class="cls-2" d="M232.9,132.62h2.8l3,8.12,3-8.12h2.73l-4.65,11.61h-2.24l-4.66-11.61"/><path id="path30" class="cls-2" d="M249.81,132.62h2.54v11.52h-2.54V132.62"/><path id="path32" class="cls-2" d="M258.69,132.62H261l5.4,7.1v-7.1h2.5v11.52h-2.15l-5.58-7.32v7.32h-2.51V132.62"/><path id="path34" class="cls-2" d="M274.65,138.42v0a5.93,5.93,0,0,1,6.05-6,6.32,6.32,0,0,1,4.52,1.58l-1.59,1.93a4.26,4.26,0,0,0-3-1.17,3.46,3.46,0,0,0-3.3,3.59v0A3.45,3.45,0,0,0,280.8,142a4,4,0,0,0,2.38-.69V139.7h-2.55v-2.19h5v5a7.48,7.48,0,0,1-4.93,1.83,5.77,5.77,0,0,1-6.06-5.92"/><path id="path36" class="cls-2" d="M299.94,132.62h2.73l3,4.87,3-4.87h2.73v11.52h-2.52v-7.52l-3.24,4.92h-.07l-3.2-4.87v7.47h-2.49V132.62"/><path id="path38" class="cls-2" d="M317.7,132.62h8.69v2.25h-6.18v2.35h5.44v2.25h-5.44v2.42h6.26v2.25H317.7V132.62"/><path id="path40" class="cls-2" d="M336.69,141.85a3.28,3.28,0,0,0,3.47-3.43v0a3.31,3.31,0,0,0-3.47-3.47h-2v6.94Zm-4.5-9.23h4.5c3.62,0,6.12,2.49,6.12,5.73v0a5.76,5.76,0,0,1-6.12,5.76h-4.5V132.62"/><path id="path42" class="cls-2" d="M348.65,132.62h2.53v11.52h-2.53V132.62"/><path id="path44" class="cls-2" d="M357,138.42v0a5.87,5.87,0,0,1,6-6,6,6,0,0,1,4.55,1.78L366,136.06a4.25,4.25,0,0,0-2.94-1.3,3.41,3.41,0,0,0-3.34,3.59v0A3.41,3.41,0,0,0,363,142a4.16,4.16,0,0,0,3-1.35l1.61,1.64a5.89,5.89,0,0,1-4.72,2.05,5.81,5.81,0,0,1-5.92-5.92"/><path id="path46" class="cls-2" d="M379.76,139.32l-1.53-3.73-1.53,3.73Zm-2.67-6.78h2.34l4.94,11.6h-2.65l-1.06-2.58h-4.87l-1.05,2.58h-2.59l4.94-11.6"/><path id="path48" class="cls-2" d="M389.61,132.62h2.54v9.22h5.74v2.3h-8.28V132.62"/><path id="path50" class="cls-2" d="M411.67,132.62h8.69v2.25h-6.17v2.35h5.43v2.25h-5.43v2.42h6.25v2.25h-8.77V132.62"/><path id="path52" class="cls-2" d="M426.16,132.62h2.74l3,4.87,3-4.87h2.74v11.52h-2.52v-7.52l-3.24,4.92h-.07l-3.21-4.87v7.47h-2.49V132.62"/><path id="path54" class="cls-2" d="M443.92,132.62h8.69v2.25h-6.17v2.35h5.43v2.25h-5.43v2.42h6.25v2.25h-8.77V132.62"/><path id="path56" class="cls-2" d="M463.52,138.22c1.23,0,1.94-.66,1.94-1.63v0c0-1.09-.75-1.65-2-1.65H461v3.31Zm-5.1-5.6h5.27a4.56,4.56,0,0,1,3.35,1.17,3.58,3.58,0,0,1,1,2.63v0a3.58,3.58,0,0,1-2.47,3.57l2.82,4.11h-3l-2.47-3.69h-2v3.69h-2.53V132.62"/><path id="path58" class="cls-2" d="M473.27,138.42v0a5.92,5.92,0,0,1,6-6,6.32,6.32,0,0,1,4.53,1.58l-1.59,1.93a4.26,4.26,0,0,0-3-1.17,3.47,3.47,0,0,0-3.31,3.59v0a3.46,3.46,0,0,0,3.49,3.66,4,4,0,0,0,2.39-.69V139.7h-2.55v-2.19h5v5a7.43,7.43,0,0,1-4.92,1.83,5.77,5.77,0,0,1-6.06-5.92"/><path id="path60" class="cls-2" d="M490.16,132.62h8.69v2.25h-6.17v2.35h5.43v2.25h-5.43v2.42h6.25v2.25h-8.77V132.62"/><path id="path62" class="cls-2" d="M504.65,132.62H507l5.4,7.1v-7.1h2.5v11.52h-2.15l-5.59-7.32v7.32h-2.5V132.62"/><path id="path64" class="cls-2" d="M520.61,138.42v0a5.86,5.86,0,0,1,6-6,6,6,0,0,1,4.55,1.78l-1.62,1.86a4.25,4.25,0,0,0-2.94-1.3,3.42,3.42,0,0,0-3.35,3.59v0a3.42,3.42,0,0,0,3.35,3.62,4.12,4.12,0,0,0,3-1.35l1.62,1.64a5.92,5.92,0,0,1-4.73,2.05,5.81,5.81,0,0,1-5.91-5.92"/><path id="path66" class="cls-2" d="M539.82,139.6l-4.43-7h3l2.75,4.63,2.8-4.63h2.88l-4.43,6.93v4.59h-2.53V139.6"/><path id="path68" class="cls-2" d="M565.33,138.22c1.24,0,1.94-.66,1.94-1.63v0c0-1.09-.75-1.65-2-1.65h-2.52v3.31Zm-5.1-5.6h5.27a4.56,4.56,0,0,1,3.35,1.17,3.58,3.58,0,0,1,1,2.63v0a3.58,3.58,0,0,1-2.47,3.57l2.82,4.11h-3l-2.48-3.69h-2v3.69h-2.53V132.62"/><path id="path70" class="cls-2" d="M575.6,132.62h8.69v2.25h-6.17v2.35h5.43v2.25h-5.43v2.42h6.25v2.25H575.6V132.62"/><path id="path72" class="cls-2" d="M589.3,142.47l1.5-1.8a5.27,5.27,0,0,0,3.44,1.4c1,0,1.66-.41,1.66-1.09v0c0-.64-.39-1-2.32-1.47-2.32-.59-3.82-1.23-3.82-3.52v0c0-2.09,1.68-3.47,4-3.47a6.66,6.66,0,0,1,4.28,1.46l-1.32,1.91a5.37,5.37,0,0,0-3-1.13c-1,0-1.48.44-1.48,1v0c0,.76.5,1,2.49,1.52,2.34.61,3.65,1.44,3.65,3.45v0c0,2.29-1.74,3.57-4.23,3.57a7.38,7.38,0,0,1-4.89-1.84"/><path id="path74" class="cls-2" d="M608.64,138.43a1.79,1.79,0,0,0,2-1.74v0c0-1.13-.79-1.74-2.06-1.74h-2v3.52Zm-4.55-5.81h4.71c2.75,0,4.41,1.63,4.41,4v0c0,2.67-2.07,4.05-4.65,4.05h-1.93v3.45h-2.54V132.62"/><path id="path76" class="cls-2" d="M627.64,138.42v0a3.5,3.5,0,0,0-3.49-3.62,3.44,3.44,0,0,0-3.45,3.59v0a3.49,3.49,0,0,0,3.49,3.62A3.44,3.44,0,0,0,627.64,138.42Zm-9.59,0v0a6.12,6.12,0,0,1,12.24,0v0a6.12,6.12,0,0,1-12.24,0"/><path id="path78" class="cls-2" d="M636,132.62h2.33l5.4,7.1v-7.1h2.51v11.52H644.1l-5.58-7.32v7.32H636V132.62"/><path id="path80" class="cls-2" d="M651.7,142.47l1.49-1.8a5.29,5.29,0,0,0,3.45,1.4c1,0,1.66-.41,1.66-1.09v0c0-.64-.4-1-2.32-1.47-2.32-.59-3.82-1.23-3.82-3.52v0c0-2.09,1.68-3.47,4-3.47a6.66,6.66,0,0,1,4.28,1.46l-1.31,1.91a5.42,5.42,0,0,0-3-1.13c-1,0-1.48.44-1.48,1v0c0,.76.49,1,2.48,1.52,2.34.61,3.66,1.44,3.66,3.45v0c0,2.29-1.75,3.57-4.23,3.57a7.34,7.34,0,0,1-4.89-1.84"/><path id="path82" class="cls-2" d="M666.49,132.62h8.7v2.25H669v2.35h5.43v2.25H669v2.42h6.26v2.25h-8.78V132.62"/><path id="path84" class="cls-2" d="M77.68,150.16l2.9-2.42c-.83,0-1.65.07-2.49.07a69.72,69.72,0,1,1,48.19-120h11.47a78.07,78.07,0,1,0-29.62,122.38H77.68"/><path id="path86" class="cls-1" d="M123.88,72.32c0,23.9-15.91,75.09-46,75.09-32.8,0-46-51.19-46-75.09,0-30.07,20.61-48.58,46.05-48.58s46.05,19,46.05,48.58"/><path id="path88" class="cls-3" d="M129.54,96.29l-.09-.52a13.83,13.83,0,0,0-.37-2.12l-2.72-15.5c0-3.15-3.63-5.71-8.09-5.71H37.38c-4.46,0-8.08,2.56-8.08,5.71l-2.72,15.5a12.73,12.73,0,0,0-.38,2.12l-.09.52h.06c0,.25-.06.49-.06.75,0,8.93,26.46,18.23,33,18.23,6.09,0,15.17-23.34,17.25-23.34h2.89c2.08,0,9.37,23.34,17.25,23.34,6.56,0,33-9.3,33-18.23,0-.26,0-.5-.06-.75h.06"/><path id="path90" class="cls-4" d="M76.38,88.89h2.89c2.61,0,3.67,2.17,6.48,8,2,4.21,7.47,15.38,10.77,15.38,6.82,0,30-9.42,30-15.2,0,0,0-.52,0-.55v-.26a11,11,0,0,0-.31-1.78l-2.77-15.77a3.05,3.05,0,0,1,0-.52c0-1.09-2-2.66-5-2.66H37.38c-3.07,0-5,1.57-5,2.66a3.05,3.05,0,0,1-.05.52L29.57,94.18a14.25,14.25,0,0,0-.34,1.89l0,.15v.24l0,.41c0,5.94,23.14,15.36,30,15.36,2.34-.58,7.65-10.37,9.91-14.55C72.6,91.1,73.8,88.89,76.38,88.89Zm20.14,29.43c-7.11,0-12.18-10.43-16.25-18.81C79.5,97.92,78.58,96,78,95h-.4c-.77,1.16-2.08,3.58-3.18,5.6-5.62,10.38-10,17.74-15.26,17.74-7.07,0-36.06-9.56-36.06-21.29a3.54,3.54,0,0,1,0-.46,3.14,3.14,0,0,1,0-.81l.09-.52a14.4,14.4,0,0,1,.43-2.37l2.63-15c.19-4.76,5-8.45,11.12-8.45h80.89c6.11,0,10.93,3.69,11.12,8.45l2.68,15.28a13.19,13.19,0,0,1,.41,2.35l.06.28a3,3,0,0,1,0,.85c0,.16,0,.29,0,.42,0,11.73-29,21.29-36.06,21.29"/><path id="path92" class="cls-3" d="M107,154.26H86.62A2.26,2.26,0,0,1,84.36,152V136.91a2.26,2.26,0,0,1,2.26-2.26H107a2.26,2.26,0,0,1,2.26,2.26V152a2.26,2.26,0,0,1-2.26,2.26"/><path id="path94" class="cls-3" d="M69,154.26H48.63A2.26,2.26,0,0,1,46.37,152V136.91a2.26,2.26,0,0,1,2.26-2.26H69a2.26,2.26,0,0,1,2.26,2.26V152A2.26,2.26,0,0,1,69,154.26"/><path id="path96" class="cls-3" d="M94.56,135.89a16.74,16.74,0,1,1-16.73-16.73,16.73,16.73,0,0,1,16.73,16.73"/><path id="path98" class="cls-2" d="M77.83,113.06a22.83,22.83,0,1,0,22.82,22.83A22.85,22.85,0,0,0,77.83,113.06Zm0,6.1a16.73,16.73,0,1,1-16.74,16.73,16.73,16.73,0,0,1,16.74-16.73"/><path id="path100" class="cls-3" d="M142.23,131.36a9,9,0,1,1-9-9,9,9,0,0,1,9,9"/><path id="path102" class="cls-3" d="M155.54,109.62a7.33,7.33,0,1,1-7.33-7.33,7.33,7.33,0,0,1,7.33,7.33"/><path id="path104" class="cls-3" d="M161.22,86a6.51,6.51,0,1,1-6.51-6.51A6.5,6.5,0,0,1,161.22,86"/><path id="path106" class="cls-3" d="M157.78,62.7a5.56,5.56,0,1,1-5.55-5.56,5.56,5.56,0,0,1,5.55,5.56"/></g></g></svg>