<svg id="svg2" xmlns="http://www.w3.org/2000/svg" viewBox="0 0 200 200"><defs><style>.cls-1,.cls-5{fill:#748389;}.cls-2,.cls-4{fill:#e11f2c;}.cls-2,.cls-3,.cls-5{fill-rule:evenodd;}.cls-3{fill:#fff;}</style></defs><title>Dmer-Logomark</title><path id="path84" class="cls-1" d="M96.74,179l3.23-2.7c-.93,0-1.85.07-2.78.07A77.8,77.8,0,1,1,151,42.45h12.8A87.11,87.11,0,1,0,130.7,179h-34"/><path id="path86" class="cls-2" d="M148.28,92.15c0,26.68-17.74,83.79-51.39,83.79-36.6,0-51.39-57.11-51.39-83.79,0-33.55,23-54.21,51.39-54.21s51.39,21.15,51.39,54.21"/><path id="path88" class="cls-3" d="M154.6,118.9l-.1-.58a14.4,14.4,0,0,0-.42-2.36l-3-17.31c0-3.51-4-6.36-9-6.36H51.76c-5,0-9,2.85-9,6.36L39.7,116a15.53,15.53,0,0,0-.41,2.36l-.1.58h.06c0,.28-.06.55-.06.83,0,10,29.52,20.35,36.84,20.35,6.8,0,16.93-26,19.25-26H98.5c2.33,0,10.46,26,19.26,26,7.32,0,36.84-10.38,36.84-20.35,0-.28,0-.55-.06-.83h.06"/><path id="path90" class="cls-4" d="M95.28,110.64H98.5c2.92,0,4.1,2.42,7.24,8.89,2.28,4.69,8.33,17.15,12,17.15,7.61,0,33.44-10.51,33.44-17,0,0,0-.58,0-.62a2.81,2.81,0,0,1,0-.29,13.33,13.33,0,0,0-.34-2l-3.1-17.59a3.81,3.81,0,0,1,0-.59c0-1.21-2.19-3-5.63-3H51.76c-3.43,0-5.63,1.75-5.63,3a2.88,2.88,0,0,1-.05.59l-3,17.3a14.07,14.07,0,0,0-.38,2.11l0,.17v.27l0,.46c0,6.62,25.82,17.13,33.43,17.13,2.61-.64,8.53-11.57,11.06-16.23C91.06,113.11,92.4,110.64,95.28,110.64Zm22.48,32.84c-7.94,0-13.6-11.64-18.14-21-.86-1.79-1.89-3.91-2.56-5.06h-.45c-.86,1.29-2.33,4-3.55,6.24-6.27,11.59-11.17,19.8-17,19.8-7.89,0-40.24-10.67-40.24-23.75,0-.17,0-.35,0-.52a3.4,3.4,0,0,1,0-.9l.1-.58a15.88,15.88,0,0,1,.48-2.65l2.93-16.76c.21-5.31,5.59-9.43,12.41-9.43H142c6.82,0,12.2,4.12,12.42,9.43l3,17.05a15.68,15.68,0,0,1,.45,2.63l.07.31a3.7,3.7,0,0,1,0,.94c0,.18,0,.33,0,.48,0,13.08-32.36,23.75-40.24,23.75"/><path id="path92" class="cls-5" d="M129.47,183.59H106.7a2.52,2.52,0,0,1-2.52-2.52V164.23a2.52,2.52,0,0,1,2.52-2.52h22.77a2.52,2.52,0,0,1,2.53,2.52v16.84a2.52,2.52,0,0,1-2.53,2.52"/><path id="path94" class="cls-5" d="M87.08,183.59H64.31a2.52,2.52,0,0,1-2.52-2.52V164.23a2.52,2.52,0,0,1,2.52-2.52H87.08a2.52,2.52,0,0,1,2.52,2.52v16.84a2.52,2.52,0,0,1-2.52,2.52"/><path id="path96" class="cls-3" d="M115.56,163.09a18.67,18.67,0,1,1-18.67-18.67,18.67,18.67,0,0,1,18.67,18.67"/><path id="path98" class="cls-1" d="M96.89,137.62a25.47,25.47,0,1,0,25.47,25.47A25.49,25.49,0,0,0,96.89,137.62Zm0,6.8a18.67,18.67,0,1,1-18.67,18.67,18.67,18.67,0,0,1,18.67-18.67"/><path id="path100" class="cls-5" d="M168.77,158a10,10,0,1,1-10-10,10,10,0,0,1,10,10"/><path id="path102" class="cls-5" d="M183.61,133.77a8.18,8.18,0,1,1-8.17-8.17,8.17,8.17,0,0,1,8.17,8.17"/><path id="path104" class="cls-5" d="M190,107.45a7.26,7.26,0,1,1-7.26-7.26,7.26,7.26,0,0,1,7.26,7.26"/><path id="path106" class="cls-5" d="M186.11,81.41a6.2,6.2,0,1,1-6.19-6.2,6.2,6.2,0,0,1,6.19,6.2"/></svg>