<?xml version="1.0" encoding="utf-8"?>
<!-- Generator: Adobe Illustrator 23.0.3, SVG Export Plug-In . SVG Version: 6.00 Build 0)  -->
<svg version="1.1" id="Capa_1" xmlns="http://www.w3.org/2000/svg" xmlns:xlink="http://www.w3.org/1999/xlink" x="0px" y="0px"
	 viewBox="0 0 512 512" style="enable-background:new 0 0 512 512;" xml:space="preserve">
<style type="text/css">
	.st0{fill:#FFFFFF;}
</style>
<g id="XMLID_43_">
	<path id="XMLID_47_" class="st0" d="M331.3,90.4c-49.8,0-90.4,40.5-90.4,90.4s40.5,90.4,90.4,90.4s90.4-40.5,90.4-90.4
		S381.1,90.4,331.3,90.4z M316.2,232.1l-40.8-40.8l21.3-21.3l19.5,19.5l49.6-49.6l21.3,21.3L316.2,232.1z"/>
	<path id="XMLID_44_" class="st0" d="M331.3,0c-99.6,0-180.7,81.1-180.7,180.7c0,44.4,16.1,85.1,42.8,116.6l-35.3,35.3L135.5,310
		L13.8,431.8C4.9,440.6,0,452.4,0,465c0,25.9,21.1,47,47,47c12.6,0,24.4-4.9,33.2-13.8L202,376.5l-22.6-22.6l35.3-35.3
		c31.5,26.7,72.2,42.8,116.6,42.8c99.6,0,180.7-81.1,180.7-180.7S430.9,0,331.3,0z M331.3,301.2c-66.4,0-120.5-54-120.5-120.5
		s54-120.5,120.5-120.5s120.5,54,120.5,120.5S397.7,301.2,331.3,301.2z"/>
</g>
</svg>
