<?xml version="1.0" encoding="utf-8"?>
<!-- Generator: Adobe Illustrator 23.0.3, SVG Export Plug-In . SVG Version: 6.00 Build 0)  -->
<svg version="1.1" id="Layer_1" xmlns="http://www.w3.org/2000/svg" xmlns:xlink="http://www.w3.org/1999/xlink" x="0px" y="0px"
	 viewBox="0 0 512 512" style="enable-background:new 0 0 512 512;" xml:space="preserve">
<style type="text/css">
	.st0{fill:#FFFFFF;}
</style>
<path class="st0" d="M256,361c57.9,0,105-47.1,105-105s-47.1-105-105-105s-105,47.1-105,105S198.1,361,256,361z M206.6,245.4
	l34.4,34.4l64.4-64.4l21.2,21.2L241,322.2l-55.6-55.6L206.6,245.4z"/>
<path class="st0" d="M256,512c3-2.5,195-52.4,195-256V60h-50.1C297.5,60,263.1,4,256,0c-6.7,3.8-42.1,60-144.9,60H61v196
	C61,459.6,253,509.5,256,512z M256,120c74.4,0,135,61.6,135,136s-60.6,135-135,135s-135-60.6-135-135S181.6,120,256,120z"/>
</svg>
